<?xml version="1.0" encoding="iso-8859-1"?>
<!-- Uploaded to: SVG Repo, www.svgrepo.com, Generator: SVG Repo Mixer Tools -->
<svg fill="#000000" height="800px" width="800px" version="1.1" id="Layer_1" xmlns="http://www.w3.org/2000/svg" xmlns:xlink="http://www.w3.org/1999/xlink"
	 viewBox="0 0 511.999 511.999" xml:space="preserve">
<g>
	<g>
		<path d="M110.517,266.665c-2.925,2.272-3.998,6.367-2.575,9.785c1.286,3.088,4.375,5.159,7.722,5.159
			c4.097,0,7.644-3.096,8.264-7.128C125.053,267.142,116.308,262.167,110.517,266.665z"/>
	</g>
</g>
<g>
	<g>
		<path d="M182.303,267.116c-5.484,5.066-1.752,14.492,5.68,14.492c4.095,0,7.644-3.091,8.263-7.128
			C197.419,266.824,187.949,261.902,182.303,267.116z"/>
	</g>
</g>
<g>
	<g>
		<path d="M176.638,302.08c-3.263-3.265-8.555-3.264-11.818,0c-3.472,3.472-8.089,5.385-13.001,5.385c-4.911,0-9.527-1.912-13-5.385
			c-3.264-3.264-8.556-3.265-11.818,0c-3.265,3.264-3.265,8.555-0.001,11.818c6.629,6.63,15.444,10.281,24.819,10.281
			c9.376,0,18.191-3.651,24.82-10.281C179.903,310.636,179.903,305.344,176.638,302.08z"/>
	</g>
</g>
<g>
	<g>
		<path d="M450.136,113.826c-9.486-34.481-24.739-61.588-45.337-80.569c-3.393-3.127-8.68-2.912-11.809,0.482
			c-3.128,3.394-2.912,8.682,0.484,11.81c42.717,39.364,51.684,112.761,51.684,167.402c0,53.626-12.895,91.779-38.328,113.4
			c-12.825,10.904-26.572,15.488-36.961,17.362c14.444-22.59,21.643-49.061,20.487-76.2c-0.779-18.468-2.278-34.01-4.582-47.519
			c-4.087-23.928-10.922-42.415-20.896-56.52c-11.628-16.445-27.915-27.184-48.408-31.916
			c-51.223-11.822-83.281-53.42-92.682-67.191c6.895-27.802,32.036-47.651,61.014-47.651h31.599c2.778,0,5.544,0.155,8.225,0.46
			c0.143,0.021,0.287,0.039,0.433,0.052l0.182,0.018c0.121,0.011,0.244,0.021,0.365,0.027c18.405,1.548,34.898,6.417,49.028,14.476
			c4.01,2.285,9.114,0.89,11.399-3.119c2.288-4.009,0.89-9.114-3.119-11.401c-16.275-9.282-35.109-14.873-55.981-16.619
			c-0.109-0.012-0.211-0.022-0.306-0.03C323.284,0.195,319.846,0,316.401,0h-31.599c-37.985,0-70.767,26.954-78.079,64.113
			c-0.02,0.086-0.038,0.172-0.056,0.257c-0.003,0.017-0.008,0.033-0.011,0.05c-0.965,4.944-1.455,10.051-1.455,15.179v82.205
			c0,8.218,0.992,16.208,2.85,23.864c-16.048-10.907-35.408-17.287-56.232-17.287c-20.098,0-39.49,5.925-56.081,17.133
			c-3.825,2.584-4.831,7.779-2.248,11.604c2.583,3.824,7.777,4.829,11.603,2.246c11.353-7.67,24.285-12.361,37.828-13.794
			c-1.566,12.377-6.533,22.718-14.83,30.819c-15.628,15.262-39.723,19.885-53.869,21.278c3.391-8.491,8.159-16.438,14.207-23.47
			c3.01-3.499,2.614-8.775-0.885-11.786c-3.499-3.01-8.775-2.614-11.786,0.885c-15.628,18.166-24.235,41.384-24.235,65.378
			c0,41.772,25.673,77.656,62.067,92.717c-7.808,3.979-15.032,9.186-21.403,15.561c-15.931,15.916-24.704,37.091-24.704,59.626
			v13.18c-2.081,0.961-6.811,4.337-6.811,4.337c-8.686,6.874-12.389,17.82-9.663,28.565c2.718,10.713,11.163,18.547,22.032,20.442
			l0.461,0.08c33.871,5.88,65.479,8.815,94.761,8.815c68.568,0,124.376-16.095,166.581-48.157
			c56.74-43.104,69.805-100.972,72.423-117.1c3.48-2.216,6.96-4.745,10.385-7.658c29.339-24.943,44.216-67.38,44.216-126.135
			C461.872,175.486,457.923,142.136,450.136,113.826z M373.656,268.222c0.238,5.595,0.066,11.155-0.497,16.648
			c-6.496,4.584-19.025,6.839-35.817,6.352c-8.861-0.254-17.116-1.222-22.599-2.014v-26.56c21.014-1.729,40.812-9.954,56.812-23.452
			C372.511,247.949,373.206,257.559,373.656,268.222z M221.916,89.328c11.631,13.704,29.783,31.505,54.014,44.537v47.192
			c0,4.615,3.741,8.357,8.357,8.357h20.44c4.617,0,8.357-3.742,8.357-8.357s-3.741-8.357-8.357-8.357h-12.082v-31.107
			c6.362,2.494,13.041,4.631,20.065,6.252c30.592,7.065,47.932,29.052,55.886,71.076c-15.998,17.429-38.455,27.355-62.211,27.355
			c-46.576,0-84.469-37.892-84.469-84.469V89.328z M249.369,245.353c14.083,9.641,30.714,15.818,48.659,17.292v11.822
			c-33.127,27.167-41.261,53.02-49.128,78.046c-5.04,16.032-9.856,31.331-21.631,46.471c-8.084-16.156-21.202-29.361-37.289-37.561
			c36.429-15.044,62.134-50.946,62.134-92.744C252.114,260.65,251.16,252.841,249.369,245.353z M229.419,237.692
			c-14.105-1.37-38.125-5.963-53.822-21.251c-8.326-8.109-13.31-18.463-14.879-30.863
			C191.983,188.901,218.137,209.54,229.419,237.692z M68.24,268.677c0-4.669,0.407-9.299,1.172-13.852
			c14.562-0.752,48.186-4.88,70.293-26.411c4.926-4.798,8.959-10.149,12.115-16.017c3.156,5.868,7.188,11.219,12.115,16.017
			c22.11,21.534,55.736,25.659,70.295,26.411c0.755,4.508,1.169,9.132,1.169,13.852c0,46.086-37.493,83.579-83.579,83.579
			S68.24,314.763,68.24,268.677z M151.822,368.971c15.825,0.001,30.387,5.481,41.919,14.623c-11.1,11.028-25.99,17.24-41.914,17.24
			c-15.947,0-30.855-6.221-41.959-17.267C121.759,374.116,136.387,368.971,151.822,368.971z M111.258,491.785
			c-11.333-1.322-22.95-2.995-34.889-5.068l-0.447-0.078c-4.361-0.76-7.616-3.783-8.707-8.087c-1.1-4.336,0.333-8.578,3.833-11.349
			l0.898-0.71c3.297-2.611,7.655-3.385,11.666-2.073c12.702,4.162,22.41,5.881,28.904,6.564L111.258,491.785z M88.816,448.54
			c-1.521-0.498-3.064-0.855-4.615-1.096v-10.86c0-15.069,4.907-29.369,13.942-41.107c14.213,14.121,33.286,22.073,53.685,22.073
			c20.377,0,39.432-7.943,53.641-22.048c7.71,10.044,12.657,22.302,13.725,35.643c-46.492,17.572-95.021,23.152-98.487,23.532
			C119.528,454.718,108.31,454.927,88.816,448.54z M324.466,450.741c-47.08,35.623-113.062,49.923-196.566,42.738l1.393-23.017
			c13.131-1.764,42.804-6.49,75.233-16.6c58.684-18.298,95.977-44.421,110.841-77.643c1.885-4.213-0.002-9.156-4.214-11.042
			c-4.212-1.882-9.157,0.001-11.042,4.215c-10.961,24.499-36.427,42.319-64.839,55.125c-0.364-2.531-0.849-5.021-1.433-7.475
			c18.601-20.07,24.907-40.106,31.009-59.518c6.456-20.538,12.616-40.117,33.209-60.613c0.27,3.732,3.001,6.864,6.719,7.595
			c3.159,0.621,18.923,3.532,36.405,3.532c9.464,0,19.427-0.858,28.168-3.39c-4.492,15.693-12.338,30.37-23.211,43.05
			c-2.02,2.355-2.568,5.634-1.425,8.518c1.141,2.884,3.788,4.897,6.871,5.231c0.329,0.036,2.113,0.212,5.079,0.212
			c6.102,0,17.87-0.768,31.41-5.563C382.214,378,366.2,419.16,324.466,450.741z"/>
	</g>
</g>
<g>
	<g>
		<path d="M259.782,140.223l-13.892-1.263c-4.582-0.414-8.662,2.97-9.078,7.566c-0.42,4.597,2.969,8.662,7.565,9.079l13.892,1.263
			c0.256,0.023,0.513,0.035,0.767,0.035c4.273,0,7.918-3.263,8.313-7.601C267.766,144.706,264.379,140.641,259.782,140.223z"/>
	</g>
</g>
<g>
	<g>
		<path d="M321.336,208.02c-3.263-3.265-8.555-3.264-11.818,0c-3.472,3.472-8.089,5.385-13.001,5.385c-4.911,0-9.527-1.912-13-5.385
			c-3.264-3.264-8.556-3.265-11.818,0c-3.265,3.264-3.265,8.555-0.001,11.818c6.628,6.629,15.443,10.281,24.819,10.281
			c9.376,0,18.191-3.651,24.82-10.281C324.601,216.574,324.601,211.283,321.336,208.02z"/>
	</g>
</g>
</svg>
